<svg width="1024" height="1024" viewBox="0 0 1024 1024" fill="none" xmlns="http://www.w3.org/2000/svg">
<g clip-path="url(#clip0_545_11)">
<path fill-rule="evenodd" clip-rule="evenodd" d="M512 0C853.333 0 1024 170.667 1024 512C1024 853.333 853.333 1024 512 1024C170.667 1024 0 853.333 0 512C0 170.667 170.667 0 512 0ZM710.98 301.819L734.879 260.479C742.969 246.526 738.145 228.639 724.191 220.549C710.164 212.459 692.352 217.284 684.262 231.237L655.02 281.854C651.828 287.42 651.16 293.506 651.754 299.444H372.246C372.84 293.506 372.246 287.42 368.98 281.854L339.812 231.163C331.723 217.209 313.836 212.385 299.883 220.475C285.93 228.565 281.105 246.452 289.195 260.405L313.094 301.745C259.805 312.655 219.801 359.784 219.801 416.264V650.127C219.801 714.698 272.125 767.022 336.695 767.022H687.453C752.023 767.022 804.348 714.698 804.348 650.127V416.338C804.273 359.858 764.27 312.729 710.98 301.819ZM745.863 650.127C745.863 682.338 719.664 708.612 687.379 708.612H336.621C304.41 708.612 278.137 682.412 278.137 650.127V416.338C278.137 384.127 304.336 357.854 336.621 357.854H687.379C719.59 357.854 745.863 384.053 745.863 416.338V650.127ZM161.242 445.506C145.063 445.506 132 458.643 132 474.748V591.643C132 607.823 145.063 620.885 161.242 620.885C177.422 620.885 190.484 607.823 190.484 591.643V474.748C190.484 458.643 177.348 445.506 161.242 445.506ZM862.758 445.506C846.578 445.506 833.516 458.569 833.516 474.748V591.643C833.516 607.823 846.578 620.885 862.758 620.885C878.938 620.885 892 607.823 892 591.643V474.748C892 458.643 878.938 445.506 862.758 445.506ZM379.344 546.402C374.524 539.188 371.951 530.708 371.951 522.033C371.951 516.273 373.085 510.569 375.29 505.248C378.61 497.233 384.232 490.383 391.446 485.563C398.659 480.743 407.139 478.17 415.815 478.17C421.575 478.169 427.279 479.304 432.601 481.508C437.922 483.712 442.758 486.943 446.831 491.017C452.964 497.151 457.141 504.967 458.834 513.476C460.526 521.984 459.658 530.804 456.339 538.819C451.886 549.566 443.347 558.105 432.6 562.558C421.852 567.009 409.776 567.009 399.029 562.558C391.014 559.237 384.164 553.615 379.344 546.402ZM577.173 555.646C568.947 547.421 564.326 536.264 564.326 524.631C564.326 512.997 568.947 501.841 577.173 493.615C585.399 485.389 596.555 480.768 608.189 480.768C619.822 480.768 630.979 485.389 639.204 493.615C647.43 501.841 652.052 512.997 652.052 524.631C652.052 536.264 647.43 547.421 639.204 555.646C630.979 563.872 619.822 568.494 608.189 568.494C596.555 568.494 585.399 563.872 577.173 555.646Z" fill="black"/>
</g>
<defs>
<clipPath id="clip0_545_11">
<rect width="1024" height="1024" fill="white"/>
</clipPath>
</defs>
</svg>
