<svg width="580" height="192" viewBox="0 0 580 192" fill="none" xmlns="http://www.w3.org/2000/svg">
<rect y="31.251" width="580" height="160" rx="14" fill="#F4F4F5"/>
<path d="M53.35 115.526C53.086 115.598 52.666 115.67 52.09 115.742C51.538 115.814 50.986 115.85 50.434 115.85C49.882 115.85 49.39 115.802 48.958 115.706C48.55 115.634 48.202 115.49 47.914 115.274C47.626 115.058 47.41 114.758 47.266 114.374C47.122 113.99 47.05 113.486 47.05 112.862V107.246H40.138V115.526C39.874 115.598 39.454 115.67 38.878 115.742C38.326 115.814 37.774 115.85 37.222 115.85C36.67 115.85 36.178 115.802 35.746 115.706C35.338 115.634 34.99 115.49 34.702 115.274C34.414 115.058 34.198 114.758 34.054 114.374C33.91 113.99 33.838 113.486 33.838 112.862V93.8542C34.102 93.8062 34.522 93.7462 35.098 93.6742C35.674 93.5782 36.226 93.5302 36.754 93.5302C37.306 93.5302 37.786 93.5782 38.194 93.6742C38.626 93.7462 38.986 93.8902 39.274 94.1062C39.562 94.3222 39.778 94.6222 39.922 95.0062C40.066 95.3902 40.138 95.8942 40.138 96.5182V102.278H47.05V93.8542C47.314 93.8062 47.734 93.7462 48.31 93.6742C48.886 93.5782 49.438 93.5302 49.966 93.5302C50.518 93.5302 50.998 93.5782 51.406 93.6742C51.838 93.7462 52.198 93.8902 52.486 94.1062C52.774 94.3222 52.99 94.6222 53.134 95.0062C53.278 95.3902 53.35 95.8942 53.35 96.5182V115.526ZM57.4135 93.3142C57.4135 92.4022 57.7135 91.6342 58.3135 91.0102C58.9375 90.3862 59.7535 90.0742 60.7615 90.0742C61.7695 90.0742 62.5735 90.3862 63.1735 91.0102C63.7975 91.6342 64.1095 92.4022 64.1095 93.3142C64.1095 94.2262 63.7975 94.9942 63.1735 95.6182C62.5735 96.2422 61.7695 96.5542 60.7615 96.5542C59.7535 96.5542 58.9375 96.2422 58.3135 95.6182C57.7135 94.9942 57.4135 94.2262 57.4135 93.3142ZM63.8215 115.634C63.5575 115.682 63.1615 115.742 62.6335 115.814C62.1295 115.91 61.6135 115.958 61.0855 115.958C60.5575 115.958 60.0775 115.922 59.6455 115.85C59.2375 115.778 58.8895 115.634 58.6015 115.418C58.3135 115.202 58.0855 114.914 57.9175 114.554C57.7735 114.17 57.7015 113.678 57.7015 113.078V98.4262C57.9655 98.3782 58.3495 98.3182 58.8535 98.2462C59.3815 98.1502 59.9095 98.1022 60.4375 98.1022C60.9655 98.1022 61.4335 98.1382 61.8415 98.2102C62.2735 98.2822 62.6335 98.4262 62.9215 98.6422C63.2095 98.8582 63.4255 99.1582 63.5695 99.5422C63.7375 99.9022 63.8215 100.382 63.8215 100.982V115.634ZM74.3777 94.7902C74.3777 95.3422 74.3657 96.1462 74.3417 97.2022C74.3177 98.2342 74.2697 99.3622 74.1977 100.586C74.1257 101.786 74.0297 102.998 73.9097 104.222C73.7897 105.422 73.6457 106.466 73.4777 107.354C73.3817 107.426 73.2377 107.498 73.0457 107.57C72.8537 107.642 72.6497 107.702 72.4337 107.75C72.2177 107.798 72.0017 107.834 71.7857 107.858C71.5697 107.882 71.3777 107.894 71.2097 107.894C70.5137 107.894 69.9257 107.786 69.4457 107.57C68.9897 107.354 68.7017 106.934 68.5817 106.31C68.4617 105.758 68.3537 104.918 68.2577 103.79C68.1857 102.662 68.1137 101.438 68.0417 100.118C67.9697 98.7982 67.9097 97.4902 67.8617 96.1942C67.8377 94.8982 67.8257 93.7942 67.8257 92.8822C68.3057 92.6182 68.8457 92.4142 69.4457 92.2702C70.0697 92.1022 70.6817 92.0182 71.2817 92.0182C72.2657 92.0182 73.0217 92.2462 73.5497 92.7022C74.1017 93.1582 74.3777 93.8542 74.3777 94.7902ZM67.7537 112.934C67.7537 111.95 68.0537 111.146 68.6537 110.522C69.2777 109.874 70.1297 109.55 71.2097 109.55C72.2897 109.55 73.1297 109.874 73.7297 110.522C74.3537 111.146 74.6657 111.95 74.6657 112.934C74.6657 113.918 74.3537 114.734 73.7297 115.382C73.1297 116.006 72.2897 116.318 71.2097 116.318C70.1297 116.318 69.2777 116.006 68.6537 115.382C68.0537 114.734 67.7537 113.918 67.7537 112.934ZM92.4154 115.526C92.1514 115.598 91.7314 115.67 91.1554 115.742C90.6034 115.814 90.0514 115.85 89.4994 115.85C88.9474 115.85 88.4554 115.802 88.0234 115.706C87.6154 115.634 87.2674 115.49 86.9794 115.274C86.6914 115.058 86.4754 114.758 86.3314 114.374C86.1874 113.99 86.1154 113.486 86.1154 112.862V93.8542C86.3794 93.8062 86.7994 93.7462 87.3754 93.6742C87.9514 93.5782 88.5034 93.5302 89.0314 93.5302C89.5834 93.5302 90.0634 93.5782 90.4714 93.6742C90.9034 93.7462 91.2634 93.8902 91.5514 94.1062C91.8394 94.3222 92.0554 94.6222 92.1994 95.0062C92.3434 95.3902 92.4154 95.8942 92.4154 96.5182V115.526ZM111.311 111.782C111.719 111.782 112.163 111.746 112.643 111.674C113.147 111.578 113.519 111.458 113.759 111.314V108.434L111.167 108.65C110.495 108.698 109.943 108.842 109.511 109.082C109.079 109.322 108.863 109.682 108.863 110.162C108.863 110.642 109.043 111.038 109.403 111.35C109.787 111.638 110.423 111.782 111.311 111.782ZM111.023 97.6342C112.319 97.6342 113.495 97.7662 114.551 98.0302C115.631 98.2942 116.543 98.7022 117.287 99.2542C118.055 99.7822 118.643 100.466 119.051 101.306C119.459 102.122 119.663 103.094 119.663 104.222V112.286C119.663 112.91 119.483 113.426 119.123 113.834C118.787 114.218 118.379 114.554 117.899 114.842C116.339 115.778 114.143 116.246 111.311 116.246C110.039 116.246 108.887 116.126 107.855 115.886C106.847 115.646 105.971 115.286 105.227 114.806C104.507 114.326 103.943 113.714 103.535 112.97C103.151 112.226 102.959 111.362 102.959 110.378C102.959 108.722 103.451 107.45 104.435 106.562C105.419 105.674 106.943 105.122 109.007 104.906L113.723 104.402V104.15C113.723 103.454 113.411 102.962 112.787 102.674C112.187 102.362 111.311 102.206 110.159 102.206C109.247 102.206 108.359 102.302 107.495 102.494C106.631 102.686 105.851 102.926 105.155 103.214C104.843 102.998 104.579 102.674 104.363 102.242C104.147 101.786 104.039 101.318 104.039 100.838C104.039 100.214 104.183 99.7222 104.471 99.3622C104.783 98.9782 105.251 98.6542 105.875 98.3902C106.571 98.1262 107.387 97.9342 108.323 97.8142C109.283 97.6942 110.183 97.6342 111.023 97.6342ZM131.793 97.6342C132.777 97.6342 133.737 97.7782 134.673 98.0662C135.633 98.3302 136.461 98.7382 137.157 99.2902C137.877 98.8102 138.681 98.4142 139.569 98.1022C140.481 97.7902 141.573 97.6342 142.845 97.6342C143.757 97.6342 144.645 97.7542 145.509 97.9942C146.397 98.2342 147.177 98.6182 147.849 99.1462C148.545 99.6502 149.097 100.334 149.505 101.198C149.913 102.038 150.117 103.07 150.117 104.294V115.634C149.877 115.706 149.493 115.778 148.965 115.85C148.461 115.922 147.933 115.958 147.381 115.958C146.853 115.958 146.373 115.922 145.941 115.85C145.533 115.778 145.185 115.634 144.897 115.418C144.609 115.202 144.381 114.914 144.213 114.554C144.069 114.17 143.997 113.678 143.997 113.078V104.474C143.997 103.754 143.793 103.238 143.385 102.926C142.977 102.59 142.425 102.422 141.729 102.422C141.393 102.422 141.033 102.506 140.649 102.674C140.265 102.818 139.977 102.974 139.785 103.142C139.809 103.238 139.821 103.334 139.821 103.43C139.821 103.502 139.821 103.574 139.821 103.646V115.634C139.557 115.706 139.161 115.778 138.633 115.85C138.129 115.922 137.613 115.958 137.085 115.958C136.557 115.958 136.077 115.922 135.645 115.85C135.237 115.778 134.889 115.634 134.601 115.418C134.313 115.202 134.085 114.914 133.917 114.554C133.773 114.17 133.701 113.678 133.701 113.078V104.474C133.701 103.754 133.473 103.238 133.017 102.926C132.585 102.59 132.057 102.422 131.433 102.422C131.001 102.422 130.629 102.494 130.317 102.638C130.005 102.758 129.741 102.878 129.525 102.998V115.634C129.285 115.706 128.901 115.778 128.373 115.85C127.869 115.922 127.341 115.958 126.789 115.958C126.261 115.958 125.781 115.922 125.349 115.85C124.941 115.778 124.593 115.634 124.305 115.418C124.017 115.202 123.789 114.914 123.621 114.554C123.477 114.17 123.405 113.678 123.405 113.078V102.206C123.405 101.558 123.537 101.042 123.801 100.658C124.089 100.274 124.473 99.9142 124.953 99.5782C125.769 99.0022 126.777 98.5342 127.977 98.1742C129.201 97.8142 130.473 97.6342 131.793 97.6342ZM172.974 115.526C172.71 115.598 172.302 115.67 171.75 115.742C171.198 115.814 170.658 115.85 170.13 115.85C169.026 115.85 168.198 115.67 167.646 115.31C167.094 114.926 166.818 114.134 166.818 112.934V108.074C166.218 107.186 165.57 106.202 164.874 105.122C164.178 104.042 163.494 102.938 162.822 101.81C162.15 100.682 161.526 99.5782 160.95 98.4982C160.374 97.3942 159.906 96.3862 159.546 95.4742C159.858 95.0422 160.278 94.6462 160.806 94.2862C161.358 93.9262 162.03 93.7462 162.822 93.7462C163.758 93.7462 164.514 93.9382 165.09 94.3222C165.69 94.7062 166.254 95.4262 166.782 96.4822L169.77 102.494H169.986C170.322 101.75 170.61 101.078 170.85 100.478C171.114 99.8542 171.366 99.2422 171.606 98.6422C171.846 98.0182 172.098 97.3822 172.362 96.7342C172.626 96.0622 172.926 95.2942 173.262 94.4302C173.694 94.2142 174.174 94.0462 174.702 93.9262C175.23 93.8062 175.734 93.7462 176.214 93.7462C177.054 93.7462 177.762 93.9742 178.338 94.4302C178.938 94.8622 179.238 95.5222 179.238 96.4102C179.238 96.6982 179.178 97.0462 179.058 97.4542C178.938 97.8622 178.662 98.4862 178.23 99.3262C177.798 100.142 177.162 101.258 176.322 102.674C175.506 104.09 174.39 105.938 172.974 108.218V115.526ZM186.232 115.634C185.992 115.706 185.608 115.778 185.08 115.85C184.576 115.922 184.048 115.958 183.496 115.958C182.968 115.958 182.488 115.922 182.056 115.85C181.648 115.778 181.3 115.634 181.012 115.418C180.724 115.202 180.496 114.914 180.328 114.554C180.184 114.17 180.112 113.678 180.112 113.078V102.278C180.112 101.726 180.208 101.258 180.4 100.874C180.616 100.466 180.916 100.106 181.3 99.7942C181.684 99.4822 182.152 99.2062 182.704 98.9662C183.28 98.7022 183.892 98.4742 184.54 98.2822C185.188 98.0902 185.86 97.9462 186.556 97.8502C187.252 97.7302 187.948 97.6702 188.644 97.6702C189.796 97.6702 190.708 97.8982 191.38 98.3542C192.052 98.7862 192.388 99.5062 192.388 100.514C192.388 100.85 192.34 101.186 192.244 101.522C192.148 101.834 192.028 102.122 191.884 102.386C191.38 102.386 190.864 102.41 190.336 102.458C189.808 102.506 189.292 102.578 188.788 102.674C188.284 102.77 187.804 102.878 187.348 102.998C186.916 103.094 186.544 103.214 186.232 103.358V115.634ZM212.353 106.922C212.353 108.41 212.125 109.742 211.669 110.918C211.213 112.07 210.565 113.042 209.725 113.834C208.909 114.626 207.925 115.226 206.773 115.634C205.621 116.042 204.337 116.246 202.921 116.246C201.505 116.246 200.221 116.03 199.069 115.598C197.917 115.166 196.921 114.554 196.081 113.762C195.265 112.946 194.629 111.962 194.173 110.81C193.717 109.658 193.489 108.362 193.489 106.922C193.489 105.506 193.717 104.222 194.173 103.07C194.629 101.918 195.265 100.946 196.081 100.154C196.921 99.3382 197.917 98.7142 199.069 98.2822C200.221 97.8502 201.505 97.6342 202.921 97.6342C204.337 97.6342 205.621 97.8622 206.773 98.3182C207.925 98.7502 208.909 99.3742 209.725 100.19C210.565 100.982 211.213 101.954 211.669 103.106C212.125 104.258 212.353 105.53 212.353 106.922ZM199.753 106.922C199.753 108.386 200.029 109.514 200.581 110.306C201.157 111.074 201.949 111.458 202.957 111.458C203.965 111.458 204.733 111.062 205.261 110.27C205.813 109.478 206.089 108.362 206.089 106.922C206.089 105.482 205.813 104.378 205.261 103.61C204.709 102.818 203.929 102.422 202.921 102.422C201.913 102.422 201.133 102.818 200.581 103.61C200.029 104.378 199.753 105.482 199.753 106.922ZM215.411 92.2342C215.651 92.1622 216.035 92.0902 216.563 92.0182C217.091 91.9222 217.631 91.8742 218.183 91.8742C218.711 91.8742 219.179 91.9102 219.587 91.9822C220.019 92.0542 220.379 92.1982 220.667 92.4142C220.955 92.6302 221.171 92.9302 221.315 93.3142C221.459 93.6742 221.531 94.1542 221.531 94.7542V98.2822C222.131 98.0422 222.695 97.8742 223.223 97.7782C223.775 97.6822 224.375 97.6342 225.023 97.6342C226.175 97.6342 227.267 97.8382 228.299 98.2462C229.331 98.6542 230.243 99.2542 231.035 100.046C231.827 100.814 232.451 101.774 232.907 102.926C233.363 104.078 233.591 105.41 233.591 106.922C233.591 108.482 233.351 109.85 232.871 111.026C232.415 112.178 231.767 113.138 230.927 113.906C230.087 114.674 229.055 115.262 227.831 115.67C226.631 116.054 225.299 116.246 223.835 116.246C222.251 116.246 220.907 116.054 219.803 115.67C218.699 115.31 217.763 114.854 216.995 114.302C215.939 113.558 215.411 112.598 215.411 111.422V92.2342ZM223.835 111.422C224.939 111.422 225.791 111.05 226.391 110.306C227.015 109.538 227.327 108.41 227.327 106.922C227.327 105.41 227.015 104.282 226.391 103.538C225.767 102.794 224.927 102.422 223.871 102.422C223.391 102.422 222.971 102.47 222.611 102.566C222.275 102.662 221.903 102.806 221.495 102.998V110.846C221.759 111.014 222.071 111.158 222.431 111.278C222.815 111.374 223.283 111.422 223.835 111.422ZM254.681 106.922C254.681 108.41 254.453 109.742 253.997 110.918C253.541 112.07 252.893 113.042 252.053 113.834C251.237 114.626 250.253 115.226 249.101 115.634C247.949 116.042 246.665 116.246 245.249 116.246C243.833 116.246 242.549 116.03 241.397 115.598C240.245 115.166 239.249 114.554 238.409 113.762C237.593 112.946 236.957 111.962 236.501 110.81C236.045 109.658 235.817 108.362 235.817 106.922C235.817 105.506 236.045 104.222 236.501 103.07C236.957 101.918 237.593 100.946 238.409 100.154C239.249 99.3382 240.245 98.7142 241.397 98.2822C242.549 97.8502 243.833 97.6342 245.249 97.6342C246.665 97.6342 247.949 97.8622 249.101 98.3182C250.253 98.7502 251.237 99.3742 252.053 100.19C252.893 100.982 253.541 101.954 253.997 103.106C254.453 104.258 254.681 105.53 254.681 106.922ZM242.081 106.922C242.081 108.386 242.357 109.514 242.909 110.306C243.485 111.074 244.277 111.458 245.285 111.458C246.293 111.458 247.061 111.062 247.589 110.27C248.141 109.478 248.417 108.362 248.417 106.922C248.417 105.482 248.141 104.378 247.589 103.61C247.037 102.818 246.257 102.422 245.249 102.422C244.241 102.422 243.461 102.818 242.909 103.61C242.357 104.378 242.081 105.482 242.081 106.922ZM263.787 109.658C263.787 110.282 263.979 110.726 264.363 110.99C264.771 111.254 265.335 111.386 266.055 111.386C266.415 111.386 266.787 111.362 267.171 111.314C267.555 111.242 267.891 111.158 268.179 111.062C268.395 111.326 268.575 111.626 268.719 111.962C268.887 112.274 268.971 112.658 268.971 113.114C268.971 114.026 268.623 114.77 267.927 115.346C267.255 115.922 266.055 116.21 264.327 116.21C262.215 116.21 260.583 115.73 259.431 114.77C258.303 113.81 257.739 112.25 257.739 110.09V94.6822C258.003 94.6102 258.375 94.5382 258.855 94.4662C259.359 94.3702 259.887 94.3222 260.439 94.3222C261.495 94.3222 262.311 94.5142 262.887 94.8982C263.487 95.2582 263.787 96.0382 263.787 97.2382V99.5422H268.503C268.647 99.8062 268.779 100.142 268.899 100.55C269.043 100.934 269.115 101.366 269.115 101.846C269.115 102.686 268.923 103.298 268.539 103.682C268.179 104.042 267.687 104.222 267.063 104.222H263.787V109.658Z" fill="black"/>
<path d="M35.2715 140.554L35.4902 142.054L35.8105 140.703L38.0605 132.765H39.3262L41.5215 140.703L41.834 142.078L42.0762 140.547L43.8418 132.765H45.3496L42.5918 144.14H41.2246L38.8809 135.851L38.7012 134.984L38.5215 135.851L36.0918 144.14H34.7246L31.9746 132.765H33.4746L35.2715 140.554ZM50.0527 144.297C48.9069 144.297 47.9746 143.922 47.2559 143.172C46.5371 142.416 46.1777 141.408 46.1777 140.148V139.882C46.1777 139.044 46.3366 138.297 46.6543 137.64C46.9772 136.979 47.4251 136.463 47.998 136.093C48.5762 135.718 49.2012 135.531 49.873 135.531C50.972 135.531 51.8262 135.893 52.4355 136.617C53.0449 137.341 53.3496 138.377 53.3496 139.726V140.328H47.623C47.6439 141.161 47.8861 141.836 48.3496 142.351C48.8184 142.862 49.4121 143.117 50.1309 143.117C50.6413 143.117 51.0736 143.013 51.4277 142.804C51.7819 142.596 52.0918 142.32 52.3574 141.976L53.2402 142.664C52.5319 143.752 51.4694 144.297 50.0527 144.297ZM49.873 136.718C49.2897 136.718 48.8001 136.932 48.4043 137.359C48.0085 137.781 47.7637 138.375 47.6699 139.14H51.9043V139.031C51.8626 138.297 51.6647 137.729 51.3105 137.328C50.9564 136.922 50.4772 136.718 49.873 136.718ZM56.5996 144.14H55.1543V132.14H56.5996V144.14ZM62.3105 143.117C62.8262 143.117 63.2767 142.961 63.6621 142.648C64.0475 142.336 64.2611 141.945 64.3027 141.476H65.6699C65.6439 141.961 65.4772 142.422 65.1699 142.859C64.8626 143.297 64.4512 143.645 63.9355 143.906C63.4251 144.166 62.8835 144.297 62.3105 144.297C61.1595 144.297 60.2428 143.914 59.5605 143.148C58.8835 142.377 58.5449 141.325 58.5449 139.992V139.75C58.5449 138.927 58.696 138.195 58.998 137.554C59.3001 136.914 59.7324 136.416 60.2949 136.062C60.8626 135.708 61.5319 135.531 62.3027 135.531C63.2507 135.531 64.0371 135.815 64.6621 136.382C65.2923 136.95 65.6283 137.687 65.6699 138.593H64.3027C64.2611 138.047 64.0527 137.599 63.6777 137.25C63.3079 136.895 62.8496 136.718 62.3027 136.718C61.5684 136.718 60.998 136.984 60.5918 137.515C60.1908 138.041 59.9902 138.804 59.9902 139.804V140.078C59.9902 141.052 60.1908 141.802 60.5918 142.328C60.9928 142.854 61.5658 143.117 62.3105 143.117ZM66.9121 139.836C66.9121 139.007 67.0736 138.263 67.3965 137.601C67.7246 136.94 68.1777 136.429 68.7559 136.07C69.3392 135.711 70.0033 135.531 70.748 135.531C71.8991 135.531 72.8288 135.929 73.5371 136.726C74.2507 137.523 74.6074 138.583 74.6074 139.906V140.007C74.6074 140.83 74.4486 141.57 74.1309 142.226C73.8184 142.877 73.3678 143.385 72.7793 143.75C72.196 144.114 71.5241 144.297 70.7637 144.297C69.6178 144.297 68.6882 143.898 67.9746 143.101C67.2663 142.304 66.9121 141.25 66.9121 139.937V139.836ZM68.3652 140.007C68.3652 140.945 68.5814 141.698 69.0137 142.265C69.4512 142.833 70.0345 143.117 70.7637 143.117C71.498 143.117 72.0814 142.83 72.5137 142.257C72.946 141.679 73.1621 140.872 73.1621 139.836C73.1621 138.908 72.9408 138.158 72.498 137.586C72.0605 137.007 71.4772 136.718 70.748 136.718C70.0345 136.718 69.459 137.002 69.0215 137.57C68.584 138.138 68.3652 138.95 68.3652 140.007ZM77.7793 135.687L77.8184 136.625C78.4382 135.895 79.2741 135.531 80.3262 135.531C81.5085 135.531 82.3132 135.984 82.7402 136.89C83.0215 136.484 83.3861 136.156 83.834 135.906C84.2871 135.656 84.821 135.531 85.4355 135.531C87.2897 135.531 88.2324 136.513 88.2637 138.476V144.14H86.8184V138.562C86.8184 137.958 86.6803 137.507 86.4043 137.211C86.1283 136.908 85.6647 136.757 85.0137 136.757C84.4772 136.757 84.0319 136.919 83.6777 137.242C83.3236 137.56 83.1178 137.989 83.0605 138.531V144.14H81.6074V138.601C81.6074 137.372 81.0059 136.757 79.8027 136.757C78.8548 136.757 78.2064 137.161 77.8574 137.968V144.14H76.4121V135.687H77.7793ZM93.959 144.297C92.8132 144.297 91.8809 143.922 91.1621 143.172C90.4434 142.416 90.084 141.408 90.084 140.148V139.882C90.084 139.044 90.2428 138.297 90.5605 137.64C90.8835 136.979 91.3314 136.463 91.9043 136.093C92.4824 135.718 93.1074 135.531 93.7793 135.531C94.8783 135.531 95.7324 135.893 96.3418 136.617C96.9512 137.341 97.2559 138.377 97.2559 139.726V140.328H91.5293C91.5501 141.161 91.7923 141.836 92.2559 142.351C92.7246 142.862 93.3184 143.117 94.0371 143.117C94.5475 143.117 94.9798 143.013 95.334 142.804C95.6882 142.596 95.998 142.32 96.2637 141.976L97.1465 142.664C96.4382 143.752 95.3757 144.297 93.959 144.297ZM93.7793 136.718C93.196 136.718 92.7064 136.932 92.3105 137.359C91.9147 137.781 91.6699 138.375 91.5762 139.14H95.8105V139.031C95.7689 138.297 95.571 137.729 95.2168 137.328C94.8626 136.922 94.3835 136.718 93.7793 136.718ZM104.865 133.64V135.687H106.443V136.804H104.865V142.047C104.865 142.385 104.936 142.64 105.076 142.812C105.217 142.979 105.456 143.062 105.795 143.062C105.962 143.062 106.191 143.031 106.482 142.968V144.14C106.102 144.244 105.732 144.297 105.373 144.297C104.727 144.297 104.24 144.101 103.912 143.711C103.584 143.32 103.42 142.765 103.42 142.047V136.804H101.881V135.687H103.42V133.64H104.865ZM107.6 139.836C107.6 139.007 107.761 138.263 108.084 137.601C108.412 136.94 108.865 136.429 109.443 136.07C110.027 135.711 110.691 135.531 111.436 135.531C112.587 135.531 113.516 135.929 114.225 136.726C114.938 137.523 115.295 138.583 115.295 139.906V140.007C115.295 140.83 115.136 141.57 114.818 142.226C114.506 142.877 114.055 143.385 113.467 143.75C112.883 144.114 112.212 144.297 111.451 144.297C110.305 144.297 109.376 143.898 108.662 143.101C107.954 142.304 107.6 141.25 107.6 139.937V139.836ZM109.053 140.007C109.053 140.945 109.269 141.698 109.701 142.265C110.139 142.833 110.722 143.117 111.451 143.117C112.186 143.117 112.769 142.83 113.201 142.257C113.633 141.679 113.85 140.872 113.85 139.836C113.85 138.908 113.628 138.158 113.186 137.586C112.748 137.007 112.165 136.718 111.436 136.718C110.722 136.718 110.146 137.002 109.709 137.57C109.271 138.138 109.053 138.95 109.053 140.007ZM122.436 135.687L122.475 136.625C123.094 135.895 123.93 135.531 124.982 135.531C126.165 135.531 126.969 135.984 127.396 136.89C127.678 136.484 128.042 136.156 128.49 135.906C128.943 135.656 129.477 135.531 130.092 135.531C131.946 135.531 132.889 136.513 132.92 138.476V144.14H131.475V138.562C131.475 137.958 131.337 137.507 131.061 137.211C130.785 136.908 130.321 136.757 129.67 136.757C129.133 136.757 128.688 136.919 128.334 137.242C127.98 137.56 127.774 137.989 127.717 138.531V144.14H126.264V138.601C126.264 137.372 125.662 136.757 124.459 136.757C123.511 136.757 122.863 137.161 122.514 137.968V144.14H121.068V135.687H122.436ZM137.873 142.023L139.842 135.687H141.389L137.99 145.445C137.464 146.851 136.628 147.554 135.482 147.554L135.209 147.531L134.67 147.429V146.257L135.061 146.289C135.55 146.289 135.93 146.19 136.201 145.992C136.477 145.794 136.704 145.432 136.881 144.906L137.201 144.047L134.186 135.687H135.764L137.873 142.023ZM153.811 140.007C153.811 141.299 153.514 142.338 152.92 143.125C152.326 143.906 151.529 144.297 150.529 144.297C149.462 144.297 148.636 143.919 148.053 143.164L147.982 144.14H146.654V132.14H148.1V136.617C148.683 135.893 149.488 135.531 150.514 135.531C151.54 135.531 152.344 135.919 152.928 136.695C153.516 137.471 153.811 138.533 153.811 139.882V140.007ZM152.365 139.843C152.365 138.859 152.175 138.099 151.795 137.562C151.415 137.026 150.868 136.757 150.154 136.757C149.201 136.757 148.516 137.2 148.1 138.086V141.742C148.542 142.627 149.232 143.07 150.17 143.07C150.863 143.07 151.402 142.802 151.787 142.265C152.173 141.729 152.365 140.922 152.365 139.843ZM157.209 144.14H155.764V132.14H157.209V144.14ZM159.146 139.836C159.146 139.007 159.308 138.263 159.631 137.601C159.959 136.94 160.412 136.429 160.99 136.07C161.574 135.711 162.238 135.531 162.982 135.531C164.133 135.531 165.063 135.929 165.771 136.726C166.485 137.523 166.842 138.583 166.842 139.906V140.007C166.842 140.83 166.683 141.57 166.365 142.226C166.053 142.877 165.602 143.385 165.014 143.75C164.43 144.114 163.758 144.297 162.998 144.297C161.852 144.297 160.923 143.898 160.209 143.101C159.501 142.304 159.146 141.25 159.146 139.937V139.836ZM160.6 140.007C160.6 140.945 160.816 141.698 161.248 142.265C161.686 142.833 162.269 143.117 162.998 143.117C163.732 143.117 164.316 142.83 164.748 142.257C165.18 141.679 165.396 140.872 165.396 139.836C165.396 138.908 165.175 138.158 164.732 137.586C164.295 137.007 163.712 136.718 162.982 136.718C162.269 136.718 161.693 137.002 161.256 137.57C160.818 138.138 160.6 138.95 160.6 140.007ZM168.311 139.843C168.311 138.526 168.615 137.479 169.225 136.703C169.834 135.922 170.641 135.531 171.646 135.531C172.678 135.531 173.482 135.895 174.061 136.625L174.131 135.687H175.451V143.937C175.451 145.031 175.126 145.893 174.475 146.523C173.829 147.153 172.959 147.468 171.865 147.468C171.256 147.468 170.66 147.338 170.076 147.078C169.493 146.817 169.048 146.461 168.74 146.007L169.49 145.14C170.11 145.906 170.868 146.289 171.764 146.289C172.467 146.289 173.014 146.091 173.404 145.695C173.8 145.299 173.998 144.742 173.998 144.023V143.297C173.42 143.963 172.631 144.297 171.631 144.297C170.641 144.297 169.839 143.898 169.225 143.101C168.615 142.304 168.311 141.218 168.311 139.843ZM169.764 140.007C169.764 140.961 169.959 141.711 170.35 142.257C170.74 142.799 171.287 143.07 171.99 143.07C172.902 143.07 173.571 142.656 173.998 141.828V137.968C173.555 137.161 172.891 136.757 172.006 136.757C171.303 136.757 170.753 137.031 170.357 137.578C169.962 138.125 169.764 138.935 169.764 140.007ZM177.592 146.406L176.771 145.843C177.261 145.161 177.516 144.458 177.537 143.734V142.429H178.951V143.562C178.951 144.088 178.821 144.614 178.561 145.14C178.305 145.666 177.982 146.088 177.592 146.406ZM192.232 142.148L193.857 135.687H195.303L192.842 144.14H191.67L189.615 137.734L187.615 144.14H186.443L183.99 135.687H185.428L187.092 142.015L189.061 135.687H190.225L192.232 142.148ZM198.35 144.14H196.904V135.687H198.35V144.14ZM196.787 133.445C196.787 133.211 196.857 133.013 196.998 132.851C197.144 132.69 197.357 132.609 197.639 132.609C197.92 132.609 198.133 132.69 198.279 132.851C198.425 133.013 198.498 133.211 198.498 133.445C198.498 133.679 198.425 133.875 198.279 134.031C198.133 134.187 197.92 134.265 197.639 134.265C197.357 134.265 197.144 134.187 196.998 134.031C196.857 133.875 196.787 133.679 196.787 133.445ZM205.592 141.898C205.592 141.507 205.443 141.205 205.146 140.992C204.855 140.773 204.342 140.586 203.607 140.429C202.878 140.273 202.298 140.086 201.865 139.867C201.438 139.648 201.12 139.388 200.912 139.086C200.709 138.783 200.607 138.424 200.607 138.007C200.607 137.315 200.899 136.729 201.482 136.25C202.071 135.77 202.821 135.531 203.732 135.531C204.691 135.531 205.467 135.778 206.061 136.273C206.66 136.768 206.959 137.401 206.959 138.172H205.506C205.506 137.776 205.337 137.435 204.998 137.148C204.665 136.862 204.243 136.718 203.732 136.718C203.206 136.718 202.795 136.833 202.498 137.062C202.201 137.291 202.053 137.591 202.053 137.961C202.053 138.31 202.191 138.573 202.467 138.75C202.743 138.927 203.24 139.096 203.959 139.257C204.683 139.419 205.269 139.612 205.717 139.836C206.165 140.06 206.495 140.33 206.709 140.648C206.928 140.961 207.037 141.343 207.037 141.797C207.037 142.552 206.735 143.158 206.131 143.617C205.527 144.07 204.743 144.297 203.779 144.297C203.102 144.297 202.503 144.177 201.982 143.937C201.462 143.698 201.053 143.364 200.756 142.937C200.464 142.505 200.318 142.039 200.318 141.539H201.764C201.79 142.023 201.982 142.408 202.342 142.695C202.706 142.976 203.186 143.117 203.779 143.117C204.326 143.117 204.764 143.007 205.092 142.789C205.425 142.565 205.592 142.268 205.592 141.898ZM210.365 136.711C211.006 135.924 211.839 135.531 212.865 135.531C214.652 135.531 215.553 136.539 215.568 138.554V144.14H214.123V138.547C214.118 137.937 213.977 137.487 213.701 137.195C213.43 136.903 213.006 136.757 212.428 136.757C211.959 136.757 211.548 136.882 211.193 137.132C210.839 137.382 210.563 137.711 210.365 138.117V144.14H208.92V132.14H210.365V136.711ZM224.467 142.023L226.436 135.687H227.982L224.584 145.445C224.058 146.851 223.222 147.554 222.076 147.554L221.803 147.531L221.264 147.429V146.257L221.654 146.289C222.144 146.289 222.524 146.19 222.795 145.992C223.071 145.794 223.298 145.432 223.475 144.906L223.795 144.047L220.779 135.687H222.357L224.467 142.023ZM228.771 139.836C228.771 139.007 228.933 138.263 229.256 137.601C229.584 136.94 230.037 136.429 230.615 136.07C231.199 135.711 231.863 135.531 232.607 135.531C233.758 135.531 234.688 135.929 235.396 136.726C236.11 137.523 236.467 138.583 236.467 139.906V140.007C236.467 140.83 236.308 141.57 235.99 142.226C235.678 142.877 235.227 143.385 234.639 143.75C234.055 144.114 233.383 144.297 232.623 144.297C231.477 144.297 230.548 143.898 229.834 143.101C229.126 142.304 228.771 141.25 228.771 139.937V139.836ZM230.225 140.007C230.225 140.945 230.441 141.698 230.873 142.265C231.311 142.833 231.894 143.117 232.623 143.117C233.357 143.117 233.941 142.83 234.373 142.257C234.805 141.679 235.021 140.872 235.021 139.836C235.021 138.908 234.8 138.158 234.357 137.586C233.92 137.007 233.337 136.718 232.607 136.718C231.894 136.718 231.318 137.002 230.881 137.57C230.443 138.138 230.225 138.95 230.225 140.007ZM243.498 143.304C242.936 143.966 242.11 144.297 241.021 144.297C240.12 144.297 239.433 144.036 238.959 143.515C238.49 142.989 238.253 142.213 238.248 141.187V135.687H239.693V141.148C239.693 142.429 240.214 143.07 241.256 143.07C242.36 143.07 243.094 142.658 243.459 141.836V135.687H244.904V144.14H243.529L243.498 143.304ZM256.295 144.14C256.212 143.974 256.144 143.677 256.092 143.25C255.42 143.948 254.618 144.297 253.686 144.297C252.852 144.297 252.167 144.062 251.631 143.593C251.1 143.119 250.834 142.52 250.834 141.797C250.834 140.916 251.167 140.234 251.834 139.75C252.506 139.26 253.449 139.015 254.662 139.015H256.068V138.351C256.068 137.846 255.917 137.445 255.615 137.148C255.313 136.846 254.868 136.695 254.279 136.695C253.764 136.695 253.331 136.825 252.982 137.086C252.633 137.346 252.459 137.661 252.459 138.031H251.006C251.006 137.609 251.154 137.203 251.451 136.812C251.753 136.416 252.16 136.104 252.67 135.875C253.186 135.645 253.751 135.531 254.365 135.531C255.339 135.531 256.102 135.776 256.654 136.265C257.206 136.75 257.493 137.419 257.514 138.273V142.164C257.514 142.94 257.613 143.557 257.811 144.015V144.14H256.295ZM253.896 143.039C254.35 143.039 254.779 142.922 255.186 142.687C255.592 142.453 255.886 142.148 256.068 141.773V140.039H254.936C253.165 140.039 252.279 140.557 252.279 141.593C252.279 142.047 252.43 142.401 252.732 142.656C253.035 142.911 253.423 143.039 253.896 143.039ZM263.404 139.843C263.404 138.526 263.709 137.479 264.318 136.703C264.928 135.922 265.735 135.531 266.74 135.531C267.771 135.531 268.576 135.895 269.154 136.625L269.225 135.687H270.545V143.937C270.545 145.031 270.219 145.893 269.568 146.523C268.923 147.153 268.053 147.468 266.959 147.468C266.35 147.468 265.753 147.338 265.17 147.078C264.587 146.817 264.141 146.461 263.834 146.007L264.584 145.14C265.204 145.906 265.962 146.289 266.857 146.289C267.561 146.289 268.107 146.091 268.498 145.695C268.894 145.299 269.092 144.742 269.092 144.023V143.297C268.514 143.963 267.725 144.297 266.725 144.297C265.735 144.297 264.933 143.898 264.318 143.101C263.709 142.304 263.404 141.218 263.404 139.843ZM264.857 140.007C264.857 140.961 265.053 141.711 265.443 142.257C265.834 142.799 266.381 143.07 267.084 143.07C267.995 143.07 268.665 142.656 269.092 141.828V137.968C268.649 137.161 267.985 136.757 267.1 136.757C266.396 136.757 265.847 137.031 265.451 137.578C265.055 138.125 264.857 138.935 264.857 140.007ZM272.35 139.836C272.35 139.007 272.511 138.263 272.834 137.601C273.162 136.94 273.615 136.429 274.193 136.07C274.777 135.711 275.441 135.531 276.186 135.531C277.337 135.531 278.266 135.929 278.975 136.726C279.688 137.523 280.045 138.583 280.045 139.906V140.007C280.045 140.83 279.886 141.57 279.568 142.226C279.256 142.877 278.805 143.385 278.217 143.75C277.633 144.114 276.962 144.297 276.201 144.297C275.055 144.297 274.126 143.898 273.412 143.101C272.704 142.304 272.35 141.25 272.35 139.937V139.836ZM273.803 140.007C273.803 140.945 274.019 141.698 274.451 142.265C274.889 142.833 275.472 143.117 276.201 143.117C276.936 143.117 277.519 142.83 277.951 142.257C278.383 141.679 278.6 140.872 278.6 139.836C278.6 138.908 278.378 138.158 277.936 137.586C277.498 137.007 276.915 136.718 276.186 136.718C275.472 136.718 274.896 137.002 274.459 137.57C274.021 138.138 273.803 138.95 273.803 140.007ZM281.475 139.836C281.475 139.007 281.636 138.263 281.959 137.601C282.287 136.94 282.74 136.429 283.318 136.07C283.902 135.711 284.566 135.531 285.311 135.531C286.462 135.531 287.391 135.929 288.1 136.726C288.813 137.523 289.17 138.583 289.17 139.906V140.007C289.17 140.83 289.011 141.57 288.693 142.226C288.381 142.877 287.93 143.385 287.342 143.75C286.758 144.114 286.087 144.297 285.326 144.297C284.18 144.297 283.251 143.898 282.537 143.101C281.829 142.304 281.475 141.25 281.475 139.937V139.836ZM282.928 140.007C282.928 140.945 283.144 141.698 283.576 142.265C284.014 142.833 284.597 143.117 285.326 143.117C286.061 143.117 286.644 142.83 287.076 142.257C287.508 141.679 287.725 140.872 287.725 139.836C287.725 138.908 287.503 138.158 287.061 137.586C286.623 137.007 286.04 136.718 285.311 136.718C284.597 136.718 284.021 137.002 283.584 137.57C283.146 138.138 282.928 138.95 282.928 140.007ZM290.631 139.843C290.631 138.547 290.938 137.505 291.553 136.718C292.167 135.927 292.972 135.531 293.967 135.531C294.956 135.531 295.74 135.869 296.318 136.547V132.14H297.764V144.14H296.436L296.365 143.234C295.787 143.942 294.982 144.297 293.951 144.297C292.972 144.297 292.173 143.895 291.553 143.093C290.938 142.291 290.631 141.244 290.631 139.953V139.843ZM292.076 140.007C292.076 140.966 292.274 141.716 292.67 142.257C293.066 142.799 293.613 143.07 294.311 143.07C295.227 143.07 295.896 142.658 296.318 141.836V137.953C295.886 137.156 295.222 136.757 294.326 136.757C293.618 136.757 293.066 137.031 292.67 137.578C292.274 138.125 292.076 138.935 292.076 140.007ZM305.943 133.64V135.687H307.521V136.804H305.943V142.047C305.943 142.385 306.014 142.64 306.154 142.812C306.295 142.979 306.535 143.062 306.873 143.062C307.04 143.062 307.269 143.031 307.561 142.968V144.14C307.18 144.244 306.811 144.297 306.451 144.297C305.805 144.297 305.318 144.101 304.99 143.711C304.662 143.32 304.498 142.765 304.498 142.047V136.804H302.959V135.687H304.498V133.64H305.943ZM310.787 144.14H309.342V135.687H310.787V144.14ZM309.225 133.445C309.225 133.211 309.295 133.013 309.436 132.851C309.581 132.69 309.795 132.609 310.076 132.609C310.357 132.609 310.571 132.69 310.717 132.851C310.863 133.013 310.936 133.211 310.936 133.445C310.936 133.679 310.863 133.875 310.717 134.031C310.571 134.187 310.357 134.265 310.076 134.265C309.795 134.265 309.581 134.187 309.436 134.031C309.295 133.875 309.225 133.679 309.225 133.445ZM314.467 135.687L314.506 136.625C315.126 135.895 315.962 135.531 317.014 135.531C318.196 135.531 319.001 135.984 319.428 136.89C319.709 136.484 320.074 136.156 320.521 135.906C320.975 135.656 321.508 135.531 322.123 135.531C323.977 135.531 324.92 136.513 324.951 138.476V144.14H323.506V138.562C323.506 137.958 323.368 137.507 323.092 137.211C322.816 136.908 322.352 136.757 321.701 136.757C321.165 136.757 320.719 136.919 320.365 137.242C320.011 137.56 319.805 137.989 319.748 138.531V144.14H318.295V138.601C318.295 137.372 317.693 136.757 316.49 136.757C315.542 136.757 314.894 137.161 314.545 137.968V144.14H313.1V135.687H314.467ZM330.646 144.297C329.501 144.297 328.568 143.922 327.85 143.172C327.131 142.416 326.771 141.408 326.771 140.148V139.882C326.771 139.044 326.93 138.297 327.248 137.64C327.571 136.979 328.019 136.463 328.592 136.093C329.17 135.718 329.795 135.531 330.467 135.531C331.566 135.531 332.42 135.893 333.029 136.617C333.639 137.341 333.943 138.377 333.943 139.726V140.328H328.217C328.238 141.161 328.48 141.836 328.943 142.351C329.412 142.862 330.006 143.117 330.725 143.117C331.235 143.117 331.667 143.013 332.021 142.804C332.376 142.596 332.686 142.32 332.951 141.976L333.834 142.664C333.126 143.752 332.063 144.297 330.646 144.297ZM330.467 136.718C329.883 136.718 329.394 136.932 328.998 137.359C328.602 137.781 328.357 138.375 328.264 139.14H332.498V139.031C332.456 138.297 332.258 137.729 331.904 137.328C331.55 136.922 331.071 136.718 330.467 136.718ZM341.037 136.711C341.678 135.924 342.511 135.531 343.537 135.531C345.324 135.531 346.225 136.539 346.24 138.554V144.14H344.795V138.547C344.79 137.937 344.649 137.487 344.373 137.195C344.102 136.903 343.678 136.757 343.1 136.757C342.631 136.757 342.219 136.882 341.865 137.132C341.511 137.382 341.235 137.711 341.037 138.117V144.14H339.592V132.14H341.037V136.711ZM351.912 144.297C350.766 144.297 349.834 143.922 349.115 143.172C348.396 142.416 348.037 141.408 348.037 140.148V139.882C348.037 139.044 348.196 138.297 348.514 137.64C348.837 136.979 349.285 136.463 349.857 136.093C350.436 135.718 351.061 135.531 351.732 135.531C352.831 135.531 353.686 135.893 354.295 136.617C354.904 137.341 355.209 138.377 355.209 139.726V140.328H349.482C349.503 141.161 349.745 141.836 350.209 142.351C350.678 142.862 351.271 143.117 351.99 143.117C352.501 143.117 352.933 143.013 353.287 142.804C353.641 142.596 353.951 142.32 354.217 141.976L355.1 142.664C354.391 143.752 353.329 144.297 351.912 144.297ZM351.732 136.718C351.149 136.718 350.66 136.932 350.264 137.359C349.868 137.781 349.623 138.375 349.529 139.14H353.764V139.031C353.722 138.297 353.524 137.729 353.17 137.328C352.816 136.922 352.337 136.718 351.732 136.718ZM360.975 136.984C360.756 136.948 360.519 136.929 360.264 136.929C359.316 136.929 358.673 137.333 358.334 138.14V144.14H356.889V135.687H358.295L358.318 136.664C358.792 135.908 359.464 135.531 360.334 135.531C360.615 135.531 360.829 135.567 360.975 135.64V136.984ZM365.662 144.297C364.516 144.297 363.584 143.922 362.865 143.172C362.146 142.416 361.787 141.408 361.787 140.148V139.882C361.787 139.044 361.946 138.297 362.264 137.64C362.587 136.979 363.035 136.463 363.607 136.093C364.186 135.718 364.811 135.531 365.482 135.531C366.581 135.531 367.436 135.893 368.045 136.617C368.654 137.341 368.959 138.377 368.959 139.726V140.328H363.232C363.253 141.161 363.495 141.836 363.959 142.351C364.428 142.862 365.021 143.117 365.74 143.117C366.251 143.117 366.683 143.013 367.037 142.804C367.391 142.596 367.701 142.32 367.967 141.976L368.85 142.664C368.141 143.752 367.079 144.297 365.662 144.297ZM365.482 136.718C364.899 136.718 364.41 136.932 364.014 137.359C363.618 137.781 363.373 138.375 363.279 139.14H367.514V139.031C367.472 138.297 367.274 137.729 366.92 137.328C366.566 136.922 366.087 136.718 365.482 136.718ZM372.256 140.929H370.951L370.85 132.765H372.365L372.256 140.929ZM370.795 143.414C370.795 143.179 370.865 142.984 371.006 142.828C371.152 142.666 371.365 142.586 371.646 142.586C371.928 142.586 372.141 142.666 372.287 142.828C372.433 142.984 372.506 143.179 372.506 143.414C372.506 143.648 372.433 143.843 372.287 144C372.141 144.151 371.928 144.226 371.646 144.226C371.365 144.226 371.152 144.151 371.006 144C370.865 143.843 370.795 143.648 370.795 143.414Z" fill="black"/>
<g clip-path="url(#clip0_2022_1791)">
<path d="M485.688 20.0594C491.796 36.3923 511.787 33.9344 525.352 30.4458C528.605 29.5737 531.937 28.6222 534.872 26.9572C537.807 25.2922 540.266 22.5965 541.218 19.3458C542.249 15.6986 541.059 11.655 538.997 8.4836C537.093 5.55002 534.316 2.45786 531.381 0.554999C530.112 3.80573 525.59 4.04358 522.496 4.04358C518.133 4.04358 514.167 2.37858 510.121 1.18929C505.996 -3.39915e-06 501.553 -0.237861 497.428 0.872143C489.099 2.85429 482.435 11.3379 485.688 20.0594Z" fill="black"/>
<path d="M485.688 20.0594C491.796 36.3923 511.787 33.9344 525.352 30.4458C528.605 29.5737 531.937 28.6222 534.872 26.9572C537.807 25.2922 540.266 22.5965 541.218 19.3458C542.249 15.6986 541.059 11.655 538.997 8.4836C537.093 5.55002 534.316 2.45786 531.381 0.554999C530.112 3.80573 525.59 4.04358 522.496 4.04358C518.133 4.04358 514.167 2.37858 510.121 1.18929C505.996 -3.39915e-06 501.553 -0.237861 497.428 0.872143C489.099 2.85429 482.435 11.3379 485.688 20.0594Z" fill="white"/>
<path d="M485.688 20.0594C491.796 36.3923 511.787 33.9344 525.352 30.4458C528.605 29.5737 531.937 28.6222 534.872 26.9572C537.807 25.2922 540.266 22.5965 541.218 19.3458C542.249 15.6986 541.059 11.655 538.997 8.4836C537.093 5.55002 534.316 2.45786 531.381 0.554999C530.112 3.80573 525.59 4.04358 522.496 4.04358C518.133 4.04358 514.167 2.37858 510.121 1.18929C505.996 -3.39915e-06 501.553 -0.237861 497.428 0.872143C489.099 2.85429 482.435 11.3379 485.688 20.0594Z" fill="black"/>
<path d="M498.142 129.395C497.904 129.395 497.825 129.395 497.666 129.474L498.142 129.395Z" fill="black"/>
<path d="M498.142 129.395C497.904 129.395 497.825 129.395 497.666 129.474L498.142 129.395Z" fill="white"/>
<path d="M498.142 129.395C497.904 129.395 497.825 129.395 497.666 129.474L498.142 129.395Z" fill="black"/>
<path d="M498.142 129.395C497.904 129.395 497.825 129.395 497.666 129.474L498.142 129.395Z" fill="black"/>
<path d="M498.142 129.395C497.904 129.395 497.825 129.395 497.666 129.474L498.142 129.395Z" fill="white"/>
<path d="M498.142 129.395C497.904 129.395 497.825 129.395 497.666 129.474L498.142 129.395Z" fill="black"/>
<path d="M480.531 49.871V34.5688C480.531 21.5659 492.669 10.9415 507.503 10.9415C514.881 10.9415 521.624 13.558 526.542 17.8394C531.461 22.1209 534.475 27.988 534.475 34.4895V49.7917" stroke="black" stroke-width="2" stroke-miterlimit="10"/>
<path d="M480.531 49.871V34.5688C480.531 21.5659 492.669 10.9415 507.503 10.9415C514.881 10.9415 521.624 13.558 526.542 17.8394C531.461 22.1209 534.475 27.988 534.475 34.4895V49.7917" stroke="white" stroke-width="2" stroke-miterlimit="10"/>
<path d="M480.531 49.871V34.5688C480.531 21.5659 492.669 10.9415 507.503 10.9415C514.881 10.9415 521.624 13.558 526.542 17.8394C531.461 22.1209 534.475 27.988 534.475 34.4895V49.7917" stroke="black" stroke-width="2" stroke-miterlimit="10"/>
<path d="M534.475 66.4417V84.1224C534.475 97.1253 522.338 107.75 507.503 107.75C492.669 107.75 480.531 97.1253 480.531 84.1224V66.4417" stroke="black" stroke-width="2" stroke-miterlimit="10"/>
<path d="M534.475 66.4417V84.1224C534.475 97.1253 522.338 107.75 507.503 107.75C492.669 107.75 480.531 97.1253 480.531 84.1224V66.4417" stroke="white" stroke-width="2" stroke-miterlimit="10"/>
<path d="M534.475 66.4417V84.1224C534.475 97.1253 522.338 107.75 507.503 107.75C492.669 107.75 480.531 97.1253 480.531 84.1224V66.4417" stroke="black" stroke-width="2" stroke-miterlimit="10"/>
<path d="M518.53 105.609H518.609V130.426" stroke="black" stroke-width="2" stroke-miterlimit="10"/>
<path d="M518.53 105.609H518.609V130.426" stroke="white" stroke-width="2" stroke-miterlimit="10"/>
<path d="M518.53 105.609H518.609V130.426" stroke="black" stroke-width="2" stroke-miterlimit="10"/>
<path d="M498.777 130.108V106.243" stroke="black" stroke-width="2" stroke-miterlimit="10"/>
<path d="M498.777 130.108V106.243" stroke="white" stroke-width="2" stroke-miterlimit="10"/>
<path d="M498.777 130.108V106.243" stroke="black" stroke-width="2" stroke-miterlimit="10"/>
<path d="M478.707 63.3495H477.12C475.375 63.3495 473.788 64.0631 472.598 65.1731C471.488 66.3624 470.774 67.9481 470.774 69.6924C470.774 73.181 473.63 76.0352 477.12 76.0352H480.293" stroke="black" stroke-width="2" stroke-miterlimit="10"/>
<path d="M478.707 63.3495H477.12C475.375 63.3495 473.788 64.0631 472.598 65.1731C471.488 66.3624 470.774 67.9481 470.774 69.6924C470.774 73.181 473.63 76.0352 477.12 76.0352H480.293" stroke="white" stroke-width="2" stroke-miterlimit="10"/>
<path d="M478.707 63.3495H477.12C475.375 63.3495 473.788 64.0631 472.598 65.1731C471.488 66.3624 470.774 67.9481 470.774 69.6924C470.774 73.181 473.63 76.0352 477.12 76.0352H480.293" stroke="black" stroke-width="2" stroke-miterlimit="10"/>
<path d="M536.22 63.3495H537.807C541.297 63.3495 544.153 66.2038 544.153 69.6924C544.153 71.4367 543.439 73.0224 542.249 74.2117C541.139 75.3217 539.552 76.0352 537.807 76.0352H534.634" stroke="black" stroke-width="2" stroke-miterlimit="10"/>
<path d="M536.22 63.3495H537.807C541.297 63.3495 544.153 66.2038 544.153 69.6924C544.153 71.4367 543.439 73.0224 542.249 74.2117C541.139 75.3217 539.552 76.0352 537.807 76.0352H534.634" stroke="white" stroke-width="2" stroke-miterlimit="10"/>
<path d="M536.22 63.3495H537.807C541.297 63.3495 544.153 66.2038 544.153 69.6924C544.153 71.4367 543.439 73.0224 542.249 74.2117C541.139 75.3217 539.552 76.0352 537.807 76.0352H534.634" stroke="black" stroke-width="2" stroke-miterlimit="10"/>
<path d="M480.373 67.7896V71.5953H477.834C476.803 71.5953 475.93 70.7231 475.93 69.6924C475.93 69.1374 476.168 68.6617 476.485 68.3446C476.803 68.0274 477.279 67.7896 477.834 67.7896H480.373V67.7896Z" fill="black"/>
<path d="M480.373 67.7896V71.5953H477.834C476.803 71.5953 475.93 70.7231 475.93 69.6924C475.93 69.1374 476.168 68.6617 476.485 68.3446C476.803 68.0274 477.279 67.7896 477.834 67.7896H480.373V67.7896Z" fill="white"/>
<path d="M480.373 67.7896V71.5953H477.834C476.803 71.5953 475.93 70.7231 475.93 69.6924C475.93 69.1374 476.168 68.6617 476.485 68.3446C476.803 68.0274 477.279 67.7896 477.834 67.7896H480.373V67.7896Z" fill="black"/>
<path d="M534.634 71.5953V67.7896H537.172C538.204 67.7896 539.076 68.6617 539.076 69.6924C539.076 70.2474 538.838 70.7231 538.521 71.0403C538.204 71.3574 537.728 71.5953 537.172 71.5953H534.634V71.5953Z" fill="black"/>
<path d="M534.634 71.5953V67.7896H537.172C538.204 67.7896 539.076 68.6617 539.076 69.6924C539.076 70.2474 538.838 70.7231 538.521 71.0403C538.204 71.3574 537.728 71.5953 537.172 71.5953H534.634V71.5953Z" fill="white"/>
<path d="M534.634 71.5953V67.7896H537.172C538.204 67.7896 539.076 68.6617 539.076 69.6924C539.076 70.2474 538.838 70.7231 538.521 71.0403C538.204 71.3574 537.728 71.5953 537.172 71.5953H534.634V71.5953Z" fill="black"/>
<path d="M507.503 71.2781C507.503 71.2781 503.537 77.621 509.883 76.0352" stroke="black" stroke-width="2" stroke-miterlimit="10" stroke-linecap="round"/>
<path d="M507.503 71.2781C507.503 71.2781 503.537 77.621 509.883 76.0352" stroke="white" stroke-width="2" stroke-miterlimit="10" stroke-linecap="round"/>
<path d="M507.503 71.2781C507.503 71.2781 503.537 77.621 509.883 76.0352" stroke="black" stroke-width="2" stroke-miterlimit="10" stroke-linecap="round"/>
<path d="M500.364 89.5931C500.364 89.5931 506.71 97.4425 515.436 89.5931" stroke="black" stroke-width="2" stroke-miterlimit="10" stroke-linecap="round"/>
<path d="M500.364 89.5931C500.364 89.5931 506.71 97.4425 515.436 89.5931" stroke="white" stroke-width="2" stroke-miterlimit="10" stroke-linecap="round"/>
<path d="M500.364 89.5931C500.364 89.5931 506.71 97.4425 515.436 89.5931" stroke="black" stroke-width="2" stroke-miterlimit="10" stroke-linecap="round"/>
<path d="M485.291 41.9423C485.291 41.9423 489.654 37.5816 497.19 41.1495" stroke="black" stroke-width="3" stroke-miterlimit="10" stroke-linecap="round"/>
<path d="M485.291 41.9423C485.291 41.9423 489.654 37.5816 497.19 41.1495" stroke="white" stroke-width="3" stroke-miterlimit="10" stroke-linecap="round"/>
<path d="M485.291 41.9423C485.291 41.9423 489.654 37.5816 497.19 41.1495" stroke="black" stroke-width="3" stroke-miterlimit="10" stroke-linecap="round"/>
<path d="M529.715 41.9423C529.715 41.9423 525.352 37.5816 517.816 41.1495" stroke="black" stroke-width="3" stroke-miterlimit="10" stroke-linecap="round"/>
<path d="M529.715 41.9423C529.715 41.9423 525.352 37.5816 517.816 41.1495" stroke="white" stroke-width="3" stroke-miterlimit="10" stroke-linecap="round"/>
<path d="M529.715 41.9423C529.715 41.9423 525.352 37.5816 517.816 41.1495" stroke="black" stroke-width="3" stroke-miterlimit="10" stroke-linecap="round"/>
<path d="M480.373 32.9037C480.373 32.9037 469.425 24.4201 474.185 14.1129C478.945 3.80569 494.017 9.35571 494.017 9.35571C494.017 9.35571 500.046 35.0444 480.373 32.9037Z" fill="black"/>
<path d="M480.373 32.9037C480.373 32.9037 469.425 24.4201 474.185 14.1129C478.945 3.80569 494.017 9.35571 494.017 9.35571C494.017 9.35571 500.046 35.0444 480.373 32.9037Z" fill="white"/>
<path d="M480.373 32.9037C480.373 32.9037 469.425 24.4201 474.185 14.1129C478.945 3.80569 494.017 9.35571 494.017 9.35571C494.017 9.35571 500.046 35.0444 480.373 32.9037Z" fill="black"/>
<path d="M425.953 96.2538C425.001 93.1617 423.652 91.6552 422.938 87.1359C421.431 78.0973 421.986 69.4551 418.258 69.7723C416.751 69.9308 416.275 71.5166 416.354 72.3887L417.544 86.6602C417.068 88.3252 416.195 87.6909 416.195 87.6909C416.195 87.6909 413.102 75.0052 412.705 72.7059C412.308 70.4858 411.198 69.2173 409.69 69.3758C407.073 69.6137 408.104 72.7851 408.342 73.9744L411.118 89.3559C411.356 90.8624 409.77 90.3866 409.77 90.3866L403.582 75.0052C402.868 73.3401 401.52 73.7366 401.52 73.7366C399.06 74.2916 400.012 76.5116 400.012 76.5116L405.327 92.8445C405.327 92.9238 405.327 93.0031 405.327 93.0824C405.407 93.9545 404.296 94.4302 403.82 93.6374C402.154 91.1002 398.902 87.0566 396.204 85.4709C394.856 84.6781 393.904 84.8366 393.349 85.2331C392.793 85.6295 392.714 86.3431 393.111 86.8981L403.027 101.249C405.327 116.472 414.609 118.295 414.609 118.295L420.162 140.02L428.333 174.271L429.364 178.632C430.316 182.834 434.124 185.847 438.408 185.847H442.771C445.864 185.847 448.006 182.834 447.054 179.98L427.301 119.881L426.429 114.648C428.333 112.507 429.602 107.988 430.237 104.737C430.633 102.993 430.792 101.17 430.633 99.4252C430.316 95.0645 433.251 87.2152 433.251 87.2152C433.013 85.7088 430.157 86.9773 430.157 86.9773C426.984 88.0873 426.191 93.1617 425.953 95.9367C425.874 97.126 425.318 98.1567 424.525 98.9495C419.765 103.627 419.369 108.86 419.369 108.86" stroke="black" stroke-width="2" stroke-miterlimit="10"/>
<path d="M425.953 96.2538C425.001 93.1617 423.652 91.6552 422.938 87.1359C421.431 78.0973 421.986 69.4551 418.258 69.7723C416.751 69.9308 416.275 71.5166 416.354 72.3887L417.544 86.6602C417.068 88.3252 416.195 87.6909 416.195 87.6909C416.195 87.6909 413.102 75.0052 412.705 72.7059C412.308 70.4858 411.198 69.2173 409.69 69.3758C407.073 69.6137 408.104 72.7851 408.342 73.9744L411.118 89.3559C411.356 90.8624 409.77 90.3866 409.77 90.3866L403.582 75.0052C402.868 73.3401 401.52 73.7366 401.52 73.7366C399.06 74.2916 400.012 76.5116 400.012 76.5116L405.327 92.8445C405.327 92.9238 405.327 93.0031 405.327 93.0824C405.407 93.9545 404.296 94.4302 403.82 93.6374C402.154 91.1002 398.902 87.0566 396.204 85.4709C394.856 84.6781 393.904 84.8366 393.349 85.2331C392.793 85.6295 392.714 86.3431 393.111 86.8981L403.027 101.249C405.327 116.472 414.609 118.295 414.609 118.295L420.162 140.02L428.333 174.271L429.364 178.632C430.316 182.834 434.124 185.847 438.408 185.847H442.771C445.864 185.847 448.006 182.834 447.054 179.98L427.301 119.881L426.429 114.648C428.333 112.507 429.602 107.988 430.237 104.737C430.633 102.993 430.792 101.17 430.633 99.4252C430.316 95.0645 433.251 87.2152 433.251 87.2152C433.013 85.7088 430.157 86.9773 430.157 86.9773C426.984 88.0873 426.191 93.1617 425.953 95.9367C425.874 97.126 425.318 98.1567 424.525 98.9495C419.765 103.627 419.369 108.86 419.369 108.86" stroke="white" stroke-width="2" stroke-miterlimit="10"/>
<path d="M425.953 96.2538C425.001 93.1617 423.652 91.6552 422.938 87.1359C421.431 78.0973 421.986 69.4551 418.258 69.7723C416.751 69.9308 416.275 71.5166 416.354 72.3887L417.544 86.6602C417.068 88.3252 416.195 87.6909 416.195 87.6909C416.195 87.6909 413.102 75.0052 412.705 72.7059C412.308 70.4858 411.198 69.2173 409.69 69.3758C407.073 69.6137 408.104 72.7851 408.342 73.9744L411.118 89.3559C411.356 90.8624 409.77 90.3866 409.77 90.3866L403.582 75.0052C402.868 73.3401 401.52 73.7366 401.52 73.7366C399.06 74.2916 400.012 76.5116 400.012 76.5116L405.327 92.8445C405.327 92.9238 405.327 93.0031 405.327 93.0824C405.407 93.9545 404.296 94.4302 403.82 93.6374C402.154 91.1002 398.902 87.0566 396.204 85.4709C394.856 84.6781 393.904 84.8366 393.349 85.2331C392.793 85.6295 392.714 86.3431 393.111 86.8981L403.027 101.249C405.327 116.472 414.609 118.295 414.609 118.295L420.162 140.02L428.333 174.271L429.364 178.632C430.316 182.834 434.124 185.847 438.408 185.847H442.771C445.864 185.847 448.006 182.834 447.054 179.98L427.301 119.881L426.429 114.648C428.333 112.507 429.602 107.988 430.237 104.737C430.633 102.993 430.792 101.17 430.633 99.4252C430.316 95.0645 433.251 87.2152 433.251 87.2152C433.013 85.7088 430.157 86.9773 430.157 86.9773C426.984 88.0873 426.191 93.1617 425.953 95.9367C425.874 97.126 425.318 98.1567 424.525 98.9495C419.765 103.627 419.369 108.86 419.369 108.86" stroke="black" stroke-width="2" stroke-miterlimit="10"/>
<path d="M412.626 72.7845C412.229 70.5645 411.515 68.8995 409.611 69.4545C407.073 70.1681 408.025 72.8638 408.262 74.0531" stroke="black" stroke-width="2" stroke-miterlimit="10"/>
<path d="M412.626 72.7845C412.229 70.5645 411.515 68.8995 409.611 69.4545C407.073 70.1681 408.025 72.8638 408.262 74.0531" stroke="white" stroke-width="2" stroke-miterlimit="10"/>
<path d="M412.626 72.7845C412.229 70.5645 411.515 68.8995 409.611 69.4545C407.073 70.1681 408.025 72.8638 408.262 74.0531" stroke="black" stroke-width="2" stroke-miterlimit="10"/>
<path d="M567 190.207V191H549.706L546.057 170.782V191H471.17V179.504C471.17 176.729 471.17 173.954 471.25 171.179C469.584 172.526 467.759 173.636 465.617 174.826L449.038 185.926C448.958 186.005 448.879 186.005 448.8 186.084C448.086 186.481 447.292 186.719 446.42 186.719L442.972 186.849C442.972 186.849 446.658 185.45 447.53 181.961L441.581 162.14C450.069 155.083 463.793 134.707 490.13 130.505C491.241 130.267 492.431 130.029 493.7 129.87C494.89 129.712 496.08 129.553 497.428 129.474L498.301 129.395V129.553L497.825 129.633C497.984 129.633 498.063 129.633 498.222 129.553H498.301C498.46 129.553 498.618 129.553 498.777 129.474H498.856L499.65 129.395V132.408C499.65 132.804 499.808 133.28 500.205 133.676C501.395 135.024 504.092 136.055 507.345 136.293C507.9 136.372 508.455 136.372 509.01 136.372C509.09 136.372 509.169 136.372 509.169 136.372H509.248C512.422 136.293 515.357 135.421 516.864 134.152C517.34 133.756 517.816 133.201 517.816 132.408V129.633L518.609 129.791H518.768C519.006 129.791 519.165 129.87 519.403 129.87V129.633L520.434 129.791C549.548 133.359 567 155.956 567 190.207Z" fill="black"/>
<path d="M567 190.207V191H549.706L546.057 170.782V191H471.17V179.504C471.17 176.729 471.17 173.954 471.25 171.179C469.584 172.526 467.759 173.636 465.617 174.826L449.038 185.926C448.958 186.005 448.879 186.005 448.8 186.084C448.086 186.481 447.292 186.719 446.42 186.719L442.972 186.849C442.972 186.849 446.658 185.45 447.53 181.961L441.581 162.14C450.069 155.083 463.793 134.707 490.13 130.505C491.241 130.267 492.431 130.029 493.7 129.87C494.89 129.712 496.08 129.553 497.428 129.474L498.301 129.395V129.553L497.825 129.633C497.984 129.633 498.063 129.633 498.222 129.553H498.301C498.46 129.553 498.618 129.553 498.777 129.474H498.856L499.65 129.395V132.408C499.65 132.804 499.808 133.28 500.205 133.676C501.395 135.024 504.092 136.055 507.345 136.293C507.9 136.372 508.455 136.372 509.01 136.372C509.09 136.372 509.169 136.372 509.169 136.372H509.248C512.422 136.293 515.357 135.421 516.864 134.152C517.34 133.756 517.816 133.201 517.816 132.408V129.633L518.609 129.791H518.768C519.006 129.791 519.165 129.87 519.403 129.87V129.633L520.434 129.791C549.548 133.359 567 155.956 567 190.207Z" fill="white"/>
<path d="M567 190.207V191H549.706L546.057 170.782V191H471.17V179.504C471.17 176.729 471.17 173.954 471.25 171.179C469.584 172.526 467.759 173.636 465.617 174.826L449.038 185.926C448.958 186.005 448.879 186.005 448.8 186.084C448.086 186.481 447.292 186.719 446.42 186.719L442.972 186.849C442.972 186.849 446.658 185.45 447.53 181.961L441.581 162.14C450.069 155.083 463.793 134.707 490.13 130.505C491.241 130.267 492.431 130.029 493.7 129.87C494.89 129.712 496.08 129.553 497.428 129.474L498.301 129.395V129.553L497.825 129.633C497.984 129.633 498.063 129.633 498.222 129.553H498.301C498.46 129.553 498.618 129.553 498.777 129.474H498.856L499.65 129.395V132.408C499.65 132.804 499.808 133.28 500.205 133.676C501.395 135.024 504.092 136.055 507.345 136.293C507.9 136.372 508.455 136.372 509.01 136.372C509.09 136.372 509.169 136.372 509.169 136.372H509.248C512.422 136.293 515.357 135.421 516.864 134.152C517.34 133.756 517.816 133.201 517.816 132.408V129.633L518.609 129.791H518.768C519.006 129.791 519.165 129.87 519.403 129.87V129.633L520.434 129.791C549.548 133.359 567 155.956 567 190.207Z" fill="black"/>
<path d="M448.958 185.846L448.72 186.005C448.8 186.005 448.879 185.926 448.958 185.846Z" fill="black"/>
<path d="M448.958 185.846L448.72 186.005C448.8 186.005 448.879 185.926 448.958 185.846Z" fill="white"/>
<path d="M448.958 185.846L448.72 186.005C448.8 186.005 448.879 185.926 448.958 185.846Z" fill="black"/>
<path d="M496.055 56.3873C496.055 56.3873 493.394 53.3772 490.061 56.6521" stroke="black" stroke-width="2" stroke-miterlimit="10" stroke-linecap="round"/>
<path d="M496.055 56.3873C496.055 56.3873 493.394 53.3772 490.061 56.6521" stroke="white" stroke-width="2" stroke-miterlimit="10" stroke-linecap="round"/>
<path d="M496.055 56.3873C496.055 56.3873 493.394 53.3772 490.061 56.6521" stroke="black" stroke-width="2" stroke-miterlimit="10" stroke-linecap="round"/>
<path d="M526.055 56.3873C526.055 56.3873 523.394 53.3772 520.061 56.6521" stroke="black" stroke-width="2" stroke-miterlimit="10" stroke-linecap="round"/>
<path d="M526.055 56.3873C526.055 56.3873 523.394 53.3772 520.061 56.6521" stroke="white" stroke-width="2" stroke-miterlimit="10" stroke-linecap="round"/>
<path d="M526.055 56.3873C526.055 56.3873 523.394 53.3772 520.061 56.6521" stroke="black" stroke-width="2" stroke-miterlimit="10" stroke-linecap="round"/>
</g>
<defs>
<clipPath id="clip0_2022_1791">
<rect width="175" height="191" fill="white" transform="translate(392)"/>
</clipPath>
</defs>
</svg>
