<svg width="176" height="191" viewBox="0 0 176 191" fill="none" xmlns="http://www.w3.org/2000/svg">
<g clip-path="url(#clip0)">
<path d="M94.3674 20.0596C100.476 36.3925 120.467 33.9347 134.032 30.4461C137.285 29.5739 140.616 28.6225 143.552 26.9575C146.487 25.2925 148.946 22.5968 149.898 19.346C150.929 15.6989 149.739 11.6553 147.677 8.48384C145.773 5.55026 142.996 2.45811 140.061 0.555243C138.792 3.80597 134.27 4.04383 131.176 4.04383C126.813 4.04383 122.847 2.37882 118.801 1.18953C114.676 0.000240743 110.233 -0.237617 106.108 0.872387C97.7786 2.85454 91.115 11.3381 94.3674 20.0596Z" fill="black"/>
<path d="M106.822 129.395C106.584 129.395 106.505 129.395 106.346 129.474L106.822 129.395Z" fill="black"/>
<path d="M106.822 129.395C106.584 129.395 106.505 129.395 106.346 129.474L106.822 129.395Z" fill="black"/>
<path d="M89.2109 49.8708V34.5686C89.2109 21.5657 101.348 10.9414 116.183 10.9414C123.56 10.9414 130.303 13.5578 135.222 17.8393C140.14 22.1207 143.155 27.9879 143.155 34.4894V49.7916" stroke="black" stroke-width="2" stroke-miterlimit="10"/>
<path d="M143.155 66.4419V84.1227C143.155 97.1256 131.017 107.75 116.183 107.75C101.348 107.75 89.2109 97.1256 89.2109 84.1227V66.4419" stroke="black" stroke-width="2" stroke-miterlimit="10"/>
<path d="M127.21 105.609H127.289V130.425" stroke="black" stroke-width="2" stroke-miterlimit="10"/>
<path d="M107.457 130.108V106.243" stroke="black" stroke-width="2" stroke-miterlimit="10"/>
<path d="M100.985 58.0244C103.194 58.0244 104.985 57.3528 104.985 56.5244C104.985 55.696 103.194 55.0244 100.985 55.0244C98.7762 55.0244 96.9854 55.696 96.9854 56.5244C96.9854 57.3528 98.7762 58.0244 100.985 58.0244Z" fill="black"/>
<path d="M132.955 58.0244C135.164 58.0244 136.955 57.3528 136.955 56.5244C136.955 55.696 135.164 55.0244 132.955 55.0244C130.746 55.0244 128.955 55.696 128.955 56.5244C128.955 57.3528 130.746 58.0244 132.955 58.0244Z" fill="black"/>
<path d="M87.3863 63.3496H85.7997C84.0545 63.3496 82.4679 64.0632 81.2779 65.1732C80.1673 66.3625 79.4534 67.9482 79.4534 69.6925C79.4534 73.1811 82.3092 76.0354 85.7997 76.0354H88.9729" stroke="black" stroke-width="2" stroke-miterlimit="10"/>
<path d="M144.9 63.3496H146.487C149.977 63.3496 152.833 66.2039 152.833 69.6925C152.833 71.4368 152.119 73.0225 150.929 74.2118C149.818 75.3218 148.232 76.0354 146.487 76.0354H143.313" stroke="black" stroke-width="2" stroke-miterlimit="10"/>
<path d="M89.0523 67.7896V71.5953H86.5138C85.4825 71.5953 84.6099 70.7231 84.6099 69.6924C84.6099 69.1374 84.8478 68.6617 85.1652 68.3446C85.4825 68.0274 85.9585 67.7896 86.5138 67.7896H89.0523Z" fill="black"/>
<path d="M143.313 71.5953V67.7896H145.852C146.883 67.7896 147.756 68.6617 147.756 69.6924C147.756 70.2474 147.518 70.7231 147.201 71.0403C146.883 71.3574 146.407 71.5953 145.852 71.5953H143.313Z" fill="black"/>
<path d="M116.183 71.2783C116.183 71.2783 112.216 77.6212 118.563 76.0355" stroke="black" stroke-width="2" stroke-miterlimit="10" stroke-linecap="round"/>
<path d="M109.043 89.5933C109.043 89.5933 115.39 97.4426 124.116 89.5933" stroke="black" stroke-width="2" stroke-miterlimit="10" stroke-linecap="round"/>
<path d="M93.9707 41.9423C93.9707 41.9423 98.3338 37.5816 105.87 41.1495" stroke="black" stroke-width="3" stroke-miterlimit="10" stroke-linecap="round"/>
<path d="M138.395 41.9423C138.395 41.9423 134.032 37.5816 126.496 41.1495" stroke="black" stroke-width="3" stroke-miterlimit="10" stroke-linecap="round"/>
<path d="M89.0522 32.9039C89.0522 32.9039 78.1048 24.4203 82.8646 14.1131C87.6243 3.80593 102.697 9.35596 102.697 9.35596C102.697 9.35596 108.726 35.0446 89.0522 32.9039Z" fill="black"/>
<path d="M34.6326 96.2541C33.6807 93.1619 32.3321 91.6555 31.6181 87.1362C30.1109 78.0976 30.6662 69.4554 26.9377 69.7725C25.4305 69.9311 24.9545 71.5168 25.0338 72.389L26.2237 86.6604C25.7478 88.3255 24.8752 87.6912 24.8752 87.6912C24.8752 87.6912 21.7813 75.0054 21.3847 72.7061C20.988 70.4861 19.8774 69.2175 18.3702 69.3761C15.7523 69.6139 16.7836 72.7854 17.0216 73.9747L19.7981 89.3562C20.0361 90.8626 18.4495 90.3869 18.4495 90.3869L12.2618 75.0054C11.5479 73.3404 10.1993 73.7368 10.1993 73.7368C7.74007 74.2918 8.69202 76.5118 8.69202 76.5118L14.0071 92.8448C14.0071 92.924 14.0071 93.0033 14.0071 93.0826C14.0864 93.9548 12.9758 94.4305 12.4998 93.6376C10.8339 91.1005 7.58141 87.0569 4.88422 85.4712C3.53562 84.6783 2.58367 84.8369 2.02837 85.2333C1.47307 85.6297 1.39374 86.3433 1.79038 86.8983L11.7065 101.249C14.0071 116.472 23.2886 118.296 23.2886 118.296L28.8416 140.02L37.0125 174.271L38.0438 178.632C38.9957 182.834 42.8035 185.847 47.0873 185.847H51.4504C54.5442 185.847 56.6861 182.834 55.7342 179.98L35.9812 119.881L35.1086 114.648C37.0125 112.508 38.2818 107.988 38.9164 104.738C39.313 102.993 39.4717 101.17 39.313 99.4255C38.9957 95.0648 41.9309 87.2154 41.9309 87.2154C41.6929 85.709 38.8371 86.9776 38.8371 86.9776C35.6639 88.0876 34.8706 93.1619 34.6326 95.9369C34.5533 97.1262 33.998 98.1569 33.2047 98.9498C28.445 103.628 28.0483 108.861 28.0483 108.861" stroke="black" stroke-width="2" stroke-miterlimit="10"/>
<path d="M21.3053 72.7847C20.9087 70.5647 20.1947 68.8997 18.2908 69.4547C15.7523 70.1683 16.7043 72.864 16.9422 74.0533" stroke="black" stroke-width="2" stroke-miterlimit="10"/>
<path d="M175.68 190.207V191H158.386L154.737 170.782V191H79.85V179.503C79.85 176.728 79.85 173.953 79.9293 171.178C78.2634 172.526 76.4389 173.636 74.297 174.825L57.7172 185.925C57.6379 186.005 57.5585 186.005 57.4792 186.084C56.7652 186.48 55.9719 186.718 55.0993 186.718L51.6515 186.849C51.6515 186.849 55.3373 185.45 56.2099 181.961L50.2603 162.14C58.7485 155.083 72.4724 134.707 98.8097 130.505C99.9203 130.267 101.11 130.029 102.379 129.87C103.569 129.712 104.759 129.553 106.108 129.474L106.981 129.395V129.553L106.505 129.632C106.663 129.632 106.743 129.632 106.901 129.553H106.981C107.139 129.553 107.298 129.553 107.457 129.474H107.536L108.329 129.395V132.407C108.329 132.804 108.488 133.28 108.884 133.676C110.074 135.024 112.772 136.055 116.024 136.292C116.579 136.372 117.135 136.372 117.69 136.372C117.769 136.372 117.849 136.372 117.849 136.372H117.928C121.101 136.292 124.036 135.42 125.544 134.152C126.02 133.755 126.496 133.2 126.496 132.407V129.632L127.289 129.791H127.447C127.685 129.791 127.844 129.87 128.082 129.87V129.632L129.113 129.791C158.227 133.359 175.68 155.955 175.68 190.207Z" fill="black"/>
<path d="M57.6379 185.846L57.3999 186.005C57.4792 186.005 57.5586 185.926 57.6379 185.846Z" fill="black"/>
</g>
<defs>
<clipPath id="clip0">
<rect width="175" height="191" fill="white" transform="translate(0.679688)"/>
</clipPath>
</defs>
</svg>
